<?xml version="1.0" encoding="UTF-8"?>
<svg id="Layer_1" xmlns="http://www.w3.org/2000/svg" viewBox="0 0 300 300">
  <defs>
    <style>
      .cls-1 {
        fill: #053097;
      }

      .cls-2 {
        fill: #606060;
      }
    </style>
  </defs>
  <g>
    <path class="cls-2" d="M72,64.32l9.12-9.12,16.11,15.76c6.28,6.14,15.88,7.2,23.35,2.58,3.08-1.91,6.85-2.49,10.33-1.6,3.72.95,6.96,2.02,9.58,3.15-4.3,1.96-8.34,4.54-11.97,7.71l-15.07,13.14c-3.57,3.11-5.62,7.61-5.62,12.35v31.24c0,5.45,4.43,9.88,9.88,9.88,8.08,0,15.17-5.16,17.65-12.85l5.27-16.31c3.78.24,10.75.49,18.78-.15l21.14,21.14c1.41,1.41,3.77,1.41,5.18,0s1.43-3.75,0-5.19l-17.09-17.09c4.96-.83,10.01-2.08,14.74-3.93,1.89-.74,2.82-2.86,2.08-4.75-.74-1.89-2.86-2.82-4.75-2.08-17.87,6.98-42.06,4.53-42.3,4.51-1.72-.19-3.34.87-3.88,2.52l-6.16,19.07c-1.5,4.65-5.79,7.77-10.68,7.77-1.4,0-2.54-1.14-2.54-2.54v-31.24c0-2.62,1.13-5.1,3.1-6.82l15.07-13.14c10.13-8.84,24.01-12.34,37.13-9.38l6.48,1.47c8.56,1.94,17.39-.61,23.59-6.82l18.36-18.36,28.04,28.04c1.43,1.43,3.75,1.43,5.19,0s1.43-3.75,0-5.19l-30.63-30.63c-1.41-1.41-3.77-1.41-5.19,0l-20.95,20.95c-4.42,4.42-10.7,6.24-16.79,4.86l-6.48-1.47c-7.42-1.68-15.05-1.59-22.3.12-3.7-2.75-9.42-5.13-17.06-7.08-5.4-1.38-11.24-.48-16.01,2.47-4.59,2.84-10.5,2.19-14.36-1.59l-18.7-18.3c-1.44-1.4-3.74-1.39-5.16.03l-11.68,11.68c-1.43,1.43-1.43,3.75,0,5.18s3.75,1.43,5.19,0Z"/>
    <path class="cls-1" d="M72,64.32l9.12-9.12,16.11,15.76c6.28,6.14,15.88,7.2,23.35,2.58,3.08-1.91,6.85-2.49,10.33-1.6,3.72.95,6.96,2.02,9.58,3.15-4.3,1.96-8.34,4.54-11.97,7.71l-15.07,13.14c-3.57,3.11-5.62,7.61-5.62,12.35v31.24c0,5.45,4.43,9.88,9.88,9.88,8.08,0,15.17-5.16,17.65-12.85l5.27-16.31c3.78.24,10.75.49,18.78-.15l21.14,21.14c1.41,1.41,3.77,1.41,5.18,0s1.43-3.75,0-5.19l-17.09-17.09c4.96-.83,10.01-2.08,14.74-3.93,1.89-.74,2.82-2.86,2.08-4.75-.74-1.89-2.86-2.82-4.75-2.08-17.87,6.98-42.06,4.53-42.3,4.51-1.72-.19-3.34.87-3.88,2.52l-6.16,19.07c-1.5,4.65-5.79,7.77-10.68,7.77-1.4,0-2.54-1.14-2.54-2.54v-31.24c0-2.62,1.13-5.1,3.1-6.82l15.07-13.14c10.13-8.84,24.01-12.34,37.13-9.38l6.48,1.47c8.56,1.94,17.39-.61,23.59-6.82l18.36-18.36,28.04,28.04c1.43,1.43,3.75,1.43,5.19,0s1.43-3.75,0-5.19l-30.63-30.63c-1.41-1.41-3.77-1.41-5.19,0l-20.95,20.95c-4.42,4.42-10.7,6.24-16.79,4.86l-6.48-1.47c-7.42-1.68-15.05-1.59-22.3.12-3.7-2.75-9.42-5.13-17.06-7.08-5.4-1.38-11.24-.48-16.01,2.47-4.59,2.84-10.5,2.19-14.36-1.59l-18.7-18.3c-1.44-1.4-3.74-1.39-5.16.03l-11.68,11.68c-1.43,1.43-1.43,3.75,0,5.18s3.75,1.43,5.19,0Z"/>
  </g>
  <g>
    <path class="cls-2" d="M273.93,99.87l-11.42-11.42c-1.43-1.43-3.75-1.43-5.19,0s-1.43,3.75,0,5.18l8.83,8.83-13.79,13.79c-4.56,4.56-7.39,10.64-7.96,17.1-1.59,18.19-14.49,34.87-20.05,41.28l-28.24-28.24c-1.43-1.43-3.75-1.43-5.19,0-1.43,1.43-1.43,3.75,0,5.19l29.86,29.86c1.79,1.79,2.78,4.18,2.78,6.71s-.99,4.92-2.78,6.71-4.18,2.78-6.71,2.78-4.92-.99-6.71-2.78l-33.53-33.53c-1.43-1.43-3.75-1.43-5.18,0s-1.43,3.75,0,5.19l31.22,31.22c3.7,3.7,3.7,9.72,0,13.43s-9.73,3.7-13.43,0l-31.22-31.22c-1.43-1.43-3.75-1.43-5.19,0-1.43,1.43-1.43,3.75,0,5.19l27.34,27.34c1.79,1.79,2.78,4.18,2.78,6.71s-.99,4.92-2.78,6.71-4.18,2.78-6.71,2.78-4.92-.99-6.72-2.78l-1.01-1.01s0,0-.01-.01c0,0-30.95-31.07-31.42-31.54-2.13-2.13-4.78-3.56-7.66-4.17,1.67-2.51,2.57-5.45,2.57-8.53,0-4.11-1.6-7.98-4.51-10.89s-6.77-4.51-10.89-4.51c-3.36,0-6.55,1.07-9.19,3.04-.62-2.75-1.99-5.37-4.13-7.51-6-6-15.77-6-21.78,0l-3.34,3.34c-1.09,1.09-1.99,2.3-2.7,3.62-5.71-7.77-13.07-20.27-14.31-34.39-.57-6.47-3.39-12.54-7.96-17.1l-13.79-13.79,27.78-27.78c1.43-1.43,1.43-3.75,0-5.19-1.43-1.43-3.75-1.43-5.19,0l-30.38,30.37c-1.43,1.43-1.43,3.75,0,5.19l16.38,16.38c3.35,3.35,5.42,7.81,5.84,12.56,1.74,19.85,14.04,36.52,20.01,43.53.52,3.15,2,6.06,4.3,8.37,2.09,2.09,4.68,3.5,7.5,4.13-1.97,2.64-3.04,5.83-3.04,9.18,0,4.11,1.6,7.98,4.51,10.89s6.77,4.51,10.89,4.51c1.72,0,3.39-.28,4.97-.82.37,3.48,1.91,6.7,4.42,9.21,3,3,6.95,4.5,10.89,4.5.73,0,1.46-.05,2.18-.15-.1,4.07,1.39,8.17,4.49,11.27,3,3,6.94,4.5,10.89,4.5,1,0,2-.1,2.99-.29l5.86,5.86c3.18,3.18,7.4,4.93,11.9,4.93s8.72-1.75,11.9-4.93,4.93-7.4,4.93-11.9c0-.34-.01-.68-.03-1.01.93.16,1.88.24,2.83.24,4.5,0,8.72-1.75,11.9-4.93,3-3,4.63-6.87,4.88-10.81,1.84.66,3.77,1,5.71,1,4.31,0,8.62-1.64,11.9-4.92,3.27-3.27,4.91-7.57,4.92-11.87,1.33.33,2.7.5,4.1.5,4.49,0,8.72-1.75,11.9-4.93,5.3-5.3,6.32-13.28,3.05-19.62,5.59-6.22,20.8-24.95,22.68-46.45.42-4.75,2.49-9.21,5.84-12.56l16.38-16.38c1.43-1.43,1.43-3.76,0-5.19ZM77.78,180.71c-1.52-1.52-2.36-3.55-2.36-5.7s.84-4.18,2.36-5.7l3.34-3.34c1.57-1.57,3.64-2.36,5.7-2.36s4.13.79,5.7,2.36c3.15,3.14,3.15,8.26,0,11.4l-3.34,3.34c-1.52,1.52-3.55,2.36-5.7,2.36s-4.18-.84-5.7-2.36ZM98.16,204.92c-3.14,3.15-8.26,3.15-11.4,0h0c-1.52-1.52-2.36-3.55-2.36-5.7s.84-4.18,2.36-5.7l10.95-10.95h0s7.61-7.62,7.61-7.62c1.52-1.52,3.55-2.36,5.7-2.36s4.18.84,5.7,2.36c1.52,1.52,2.36,3.55,2.36,5.7s-.84,4.18-2.36,5.7l-18.57,18.57ZM119.41,216.86c-.22.22-.43.44-.63.67-.12.09-.23.19-.34.29-1.52,1.52-3.55,2.36-5.7,2.36s-4.18-.84-5.7-2.36c-1.52-1.52-2.36-3.55-2.36-5.7s.84-4.17,2.36-5.7l7.9-7.9c1.52-1.52,3.54-2.36,5.7-2.36s4.18.84,5.7,2.36,2.36,3.55,2.36,5.7-.84,4.18-2.36,5.7l-6.92,6.92ZM136,233.45c-3.15,3.15-8.26,3.15-11.41,0-3.15-3.14-3.15-8.26,0-11.4l6.92-6.92c1.52-1.52,3.55-2.36,5.7-2.36,1.72,0,3.36.54,4.72,1.54l1.8,1.79c1,1.37,1.55,3.01,1.55,4.73,0,2.16-.84,4.18-2.36,5.7l-6.92,6.92ZM157.76,243.51c-1.79,1.79-4.18,2.78-6.71,2.78s-4.92-.99-6.71-2.78l-4.05-4.05c.31-.27.61-.54.9-.83l6.92-6.92c2.06-2.06,3.41-4.56,4.06-7.21l5.61,5.6c1.78,1.79,2.76,4.17,2.76,6.69s-.99,4.92-2.78,6.71Z"/>
    <path class="cls-1" d="M273.93,99.87l-11.42-11.42c-1.43-1.43-3.75-1.43-5.19,0s-1.43,3.75,0,5.18l8.83,8.83-13.79,13.79c-4.56,4.56-7.39,10.64-7.96,17.1-1.59,18.19-14.49,34.87-20.05,41.28l-28.24-28.24c-1.43-1.43-3.75-1.43-5.19,0-1.43,1.43-1.43,3.75,0,5.19l29.86,29.86c1.79,1.79,2.78,4.18,2.78,6.71s-.99,4.92-2.78,6.71-4.18,2.78-6.71,2.78-4.92-.99-6.71-2.78l-33.53-33.53c-1.43-1.43-3.75-1.43-5.18,0s-1.43,3.75,0,5.19l31.22,31.22c3.7,3.7,3.7,9.72,0,13.43s-9.73,3.7-13.43,0l-31.22-31.22c-1.43-1.43-3.75-1.43-5.19,0-1.43,1.43-1.43,3.75,0,5.19l27.34,27.34c1.79,1.79,2.78,4.18,2.78,6.71s-.99,4.92-2.78,6.71-4.18,2.78-6.71,2.78-4.92-.99-6.72-2.78l-1.01-1.01s0,0-.01-.01c0,0-30.95-31.07-31.42-31.54-2.13-2.13-4.78-3.56-7.66-4.17,1.67-2.51,2.57-5.45,2.57-8.53,0-4.11-1.6-7.98-4.51-10.89s-6.77-4.51-10.89-4.51c-3.36,0-6.55,1.07-9.19,3.04-.62-2.75-1.99-5.37-4.13-7.51-6-6-15.77-6-21.78,0l-3.34,3.34c-1.09,1.09-1.99,2.3-2.7,3.62-5.71-7.77-13.07-20.27-14.31-34.39-.57-6.47-3.39-12.54-7.96-17.1l-13.79-13.79,27.78-27.78c1.43-1.43,1.43-3.75,0-5.19-1.43-1.43-3.75-1.43-5.19,0l-30.38,30.37c-1.43,1.43-1.43,3.75,0,5.19l16.38,16.38c3.35,3.35,5.42,7.81,5.84,12.56,1.74,19.85,14.04,36.52,20.01,43.53.52,3.15,2,6.06,4.3,8.37,2.09,2.09,4.68,3.5,7.5,4.13-1.97,2.64-3.04,5.83-3.04,9.18,0,4.11,1.6,7.98,4.51,10.89s6.77,4.51,10.89,4.51c1.72,0,3.39-.28,4.97-.82.37,3.48,1.91,6.7,4.42,9.21,3,3,6.95,4.5,10.89,4.5.73,0,1.46-.05,2.18-.15-.1,4.07,1.39,8.17,4.49,11.27,3,3,6.94,4.5,10.89,4.5,1,0,2-.1,2.99-.29l5.86,5.86c3.18,3.18,7.4,4.93,11.9,4.93s8.72-1.75,11.9-4.93,4.93-7.4,4.93-11.9c0-.34-.01-.68-.03-1.01.93.16,1.88.24,2.83.24,4.5,0,8.72-1.75,11.9-4.93,3-3,4.63-6.87,4.88-10.81,1.84.66,3.77,1,5.71,1,4.31,0,8.62-1.64,11.9-4.92,3.27-3.27,4.91-7.57,4.92-11.87,1.33.33,2.7.5,4.1.5,4.49,0,8.72-1.75,11.9-4.93,5.3-5.3,6.32-13.28,3.05-19.62,5.59-6.22,20.8-24.95,22.68-46.45.42-4.75,2.49-9.21,5.84-12.56l16.38-16.38c1.43-1.43,1.43-3.76,0-5.19ZM77.78,180.71c-1.52-1.52-2.36-3.55-2.36-5.7s.84-4.18,2.36-5.7l3.34-3.34c1.57-1.57,3.64-2.36,5.7-2.36s4.13.79,5.7,2.36c3.15,3.14,3.15,8.26,0,11.4l-3.34,3.34c-1.52,1.52-3.55,2.36-5.7,2.36s-4.18-.84-5.7-2.36ZM98.16,204.92c-3.14,3.15-8.26,3.15-11.4,0h0c-1.52-1.52-2.36-3.55-2.36-5.7s.84-4.18,2.36-5.7l10.95-10.95h0s7.61-7.62,7.61-7.62c1.52-1.52,3.55-2.36,5.7-2.36s4.18.84,5.7,2.36c1.52,1.52,2.36,3.55,2.36,5.7s-.84,4.18-2.36,5.7l-18.57,18.57ZM119.41,216.86c-.22.22-.43.44-.63.67-.12.09-.23.19-.34.29-1.52,1.52-3.55,2.36-5.7,2.36s-4.18-.84-5.7-2.36c-1.52-1.52-2.36-3.55-2.36-5.7s.84-4.17,2.36-5.7l7.9-7.9c1.52-1.52,3.54-2.36,5.7-2.36s4.18.84,5.7,2.36,2.36,3.55,2.36,5.7-.84,4.18-2.36,5.7l-6.92,6.92ZM136,233.45c-3.15,3.15-8.26,3.15-11.41,0-3.15-3.14-3.15-8.26,0-11.4l6.92-6.92c1.52-1.52,3.55-2.36,5.7-2.36,1.72,0,3.36.54,4.72,1.54l1.8,1.79c1,1.37,1.55,3.01,1.55,4.73,0,2.16-.84,4.18-2.36,5.7l-6.92,6.92ZM157.76,243.51c-1.79,1.79-4.18,2.78-6.71,2.78s-4.92-.99-6.71-2.78l-4.05-4.05c.31-.27.61-.54.9-.83l6.92-6.92c2.06-2.06,3.41-4.56,4.06-7.21l5.61,5.6c1.78,1.79,2.76,4.17,2.76,6.69s-.99,4.92-2.78,6.71Z"/>
  </g>
</svg>