<?xml version="1.0" encoding="UTF-8"?>
<svg id="Layer_1" xmlns="http://www.w3.org/2000/svg" viewBox="0 0 300 300">
  <defs>
    <style>
      .cls-1 {
        fill: #053097;
      }
    </style>
  </defs>
  <path class="cls-1" d="M245.57,140.85c-8.51-4.25-24.46-4.3-25.13-4.3-2.02,0-3.66,1.64-3.66,3.66s1.64,3.66,3.66,3.66c4.12,0,16.07.63,21.86,3.53.53.26,1.08.39,1.63.39,1.34,0,2.64-.74,3.28-2.02.9-1.81.17-4.01-1.64-4.91Z"/>
  <path class="cls-1" d="M263.82,192.99l-15.12-4.32c-.65-.19-1.11-.79-1.11-1.47v-5.05c1.23-.85,2.4-1.81,3.5-2.87,5.32-5.16,8.25-12.08,8.25-19.49v-6.97l1.46-2.92c1.6-3.21,2.45-6.8,2.45-10.39v-18.87c0-2.02-1.64-3.66-3.66-3.66h-35.24c-12.81,0-23.24,10.43-23.24,23.24v.22c0,2.98.71,5.97,2.04,8.64l1.88,3.75v5.98c0,9.48,4.67,17.98,11.75,23.1v5.29c0,.82,0,1.15-3.02,2.02l-7.38,2.11-21.35-7.76c.08-1.01-.26-2.03-1-2.8l-6.82-7.17v-12.03c.72-.59,1.43-1.2,2.12-1.85,8.61-8.07,13.54-19.46,13.54-31.25v-9.61c2.6-5.65,3.92-11.64,3.92-17.8v-39.16c0-2.02-1.64-3.66-3.66-3.66h-54.82c-19.29,0-34.99,15.7-34.99,34.99v7.83c0,6.16,1.32,12.15,3.92,17.8v8.27c0,13.69,6.09,26.02,15.66,34.15v12.31l-6.82,7.17c-.73.77-1.07,1.8-1,2.8l-22.53,8.19c-1.63.59-3.15,1.4-4.53,2.37l-3.54-1.77c10.53-4.58,13.87-11.03,14.03-11.35.52-1.03.52-2.24,0-3.28-2.64-5.28-2.96-14.96-3.22-22.73-.09-2.59-.17-5.03-.32-7.21-1.25-17.57-14.6-30.81-31.06-30.81s-29.81,13.25-31.06,30.81c-.15,2.18-.24,4.62-.32,7.21-.26,7.78-.58,17.45-3.22,22.73-.52,1.03-.52,2.24,0,3.28.16.32,3.49,6.75,14.04,11.34l-9.83,4.91c-5.25,2.63-8.52,7.91-8.52,13.78v27.06c0,2.02,1.64,3.66,3.66,3.66s3.66-1.64,3.66-3.66v-27.06c0-3.08,1.71-5.85,4.47-7.23l12.24-6.12,4.26,4.05c2.98,2.83,6.79,4.24,10.61,4.24s7.64-1.41,10.61-4.24l4.26-4.04,3.99,2c-1.88,3.01-2.95,6.53-2.95,10.22v28.19c0,2.02,1.64,3.66,3.66,3.66s3.66-1.64,3.66-3.66v-28.19c0-5.03,3.17-9.56,7.9-11.28l23.76-8.64,9.89,14.83c1.26,1.9,3.29,3.11,5.56,3.34.25.02.5.04.76.04,2,0,3.92-.79,5.35-2.22l6.03-6.03v38.15c0,2.02,1.64,3.66,3.66,3.66s3.66-1.64,3.66-3.66v-38.15l6.03,6.03c1.43,1.43,3.35,2.22,5.35,2.22.25,0,.5-.01.75-.04,2.27-.22,4.29-1.44,5.56-3.34l9.89-14.83,23.76,8.64c4.72,1.72,7.9,6.25,7.9,11.28v28.19c0,2.02,1.64,3.66,3.66,3.66s3.66-1.64,3.66-3.66v-28.19c0-5.09-2.02-9.87-5.42-13.4l.9-.26c.91-.26,2.16-.62,3.41-1.23l9.35,9.35v33.72c0,2.02,1.64,3.66,3.66,3.66s3.66-1.64,3.66-3.66v-33.72l9.29-9.29c.49.25,1.01.46,1.56.62l15.13,4.32c3.45.99,5.86,4.18,5.86,7.77v30.29c0,2.02,1.64,3.66,3.66,3.66s3.66-1.64,3.66-3.66v-30.29c0-6.84-4.6-12.94-11.18-14.82ZM48.49,186.52c-6.85-2.46-10.29-5.75-11.75-7.55,1-2.61,1.65-5.61,2.09-8.77,2.02,4.84,5.4,8.98,9.67,11.93v4.39ZM69.47,196.43c-3.12,2.97-8.02,2.97-11.14,0l-3.41-3.24c.57-1.08.89-2.3.89-3.58v-3.9c2.55.8,5.27,1.23,8.08,1.23s5.53-.43,8.08-1.23v3.9c0,1.28.31,2.5.89,3.58l-3.41,3.24ZM63.9,179.62c-10.94,0-19.83-8.9-19.83-19.83,0-2.02-1.64-3.66-3.66-3.66-.21,0-.41.02-.6.05.01-.31.02-.63.03-.94.08-2.52.16-4.9.31-6.94.47-6.58,3.1-12.64,7.4-17.07,4.35-4.47,10.15-6.93,16.35-6.93s12.01,2.46,16.35,6.93c4.31,4.43,6.94,10.49,7.4,17.07.14,2.04.22,4.42.31,6.94,0,.22.01.44.02.65-3.98-6.14-10.14-10.66-18.09-13.22-7.35-2.36-13.66-2.21-13.93-2.21-.96.03-1.87.43-2.53,1.12l-6.61,6.85c-1.4,1.46-1.36,3.77.09,5.18s3.77,1.36,5.18-.09l5.5-5.7c4.73.23,19.97,2,25.89,15.05-1.49,9.61-9.75,16.75-19.59,16.75ZM79.31,186.53v-4.37c4.26-2.93,7.65-7.06,9.67-11.94.44,3.15,1.09,6.14,2.08,8.75-1.46,1.78-4.91,5.09-11.75,7.56ZM114.55,127.12v-9.09c0-.55-.12-1.1-.36-1.59-2.36-4.88-3.55-10.06-3.55-15.39v-7.83c0-15.25,12.41-27.66,27.66-27.66h51.16v35.49c0,5.33-1.19,10.51-3.55,15.39-.24.5-.36,1.04-.36,1.59v10.43c0,9.92-3.99,19.12-11.23,25.9-.9.85-1.84,1.64-2.81,2.38-.02.01-.04.03-.06.05-6.78,5.15-15.09,7.65-23.76,7.09-18.57-1.2-33.12-17.35-33.12-36.76ZM135.17,200.81s-.08.09-.2.07c-.12-.01-.17-.08-.19-.11l-11.39-17.08,3.67-3.85,17.28,11.81-9.16,9.16ZM150.05,186.68l-19.83-13.56v-6.84c5.13,2.77,10.88,4.51,16.99,4.9.97.06,1.92.09,2.88.09,7,0,13.74-1.67,19.79-4.85v6.69l-19.83,13.56ZM165.31,200.77s-.07.1-.19.11c-.12.02-.18-.05-.2-.07l-9.16-9.16,17.28-11.81,3.67,3.85-11.39,17.08ZM232.18,197.68l-8.31-8.31c.15-.66.23-1.38.23-2.18v-1.55c2.31.76,4.74,1.21,7.25,1.28.28,0,.56.01.84.01,2.78,0,5.49-.42,8.07-1.22v1.47c0,.73.09,1.45.26,2.13l-8.35,8.35ZM245.99,174.02c-3.88,3.77-9.01,5.76-14.42,5.59-10.6-.32-19.22-9.65-19.22-20.81v-6.85c0-.57-.13-1.13-.39-1.64l-2.26-4.52c-.83-1.66-1.27-3.51-1.27-5.37v-.22c0-8.78,7.14-15.92,15.92-15.92h31.58v15.21c0,2.46-.58,4.92-1.68,7.12l-1.85,3.7c-.25.51-.39,1.07-.39,1.64v7.83c0,5.41-2.14,10.46-6.02,14.23Z"/>
  <path class="cls-1" d="M255.68,210.94c-2.02,0-3.66,1.64-3.66,3.66v23.49c0,2.02,1.64,3.66,3.66,3.66s3.66-1.64,3.66-3.66v-23.49c0-2.02-1.64-3.66-3.66-3.66Z"/>
  <path class="cls-1" d="M44.32,215.79c-2.02,0-3.66,1.64-3.66,3.66v18.65c0,2.02,1.64,3.66,3.66,3.66s3.66-1.64,3.66-3.66v-18.65c0-2.02-1.64-3.66-3.66-3.66Z"/>
  <path class="cls-1" d="M180.04,102.38c-13.85-13.85-42.83-11.2-54.65-9.42-3.72.56-6.42,3.71-6.42,7.49v8.44c0,2.02,1.64,3.66,3.66,3.66s3.66-1.64,3.66-3.66v-8.44c0-.12.08-.23.19-.25,4.72-.71,14.09-1.81,23.79-1.16,11.42.76,19.69,3.63,24.58,8.52,1.43,1.43,3.75,1.43,5.18,0,1.43-1.43,1.43-3.75,0-5.18Z"/>
  <path class="cls-1" d="M106.97,218.78c-2.02,0-3.66,1.64-3.66,3.66v15.66c0,2.02,1.64,3.66,3.66,3.66s3.66-1.64,3.66-3.66v-15.66c0-2.02-1.64-3.66-3.66-3.66Z"/>
  <path class="cls-1" d="M193.12,218.78c-2.02,0-3.66,1.64-3.66,3.66v15.66c0,2.02,1.64,3.66,3.66,3.66s3.66-1.64,3.66-3.66v-15.66c0-2.02-1.64-3.66-3.66-3.66Z"/>
</svg>