<?xml version="1.0" encoding="UTF-8"?>
<svg id="Layer_1" xmlns="http://www.w3.org/2000/svg" viewBox="0 0 300 300">
  <defs>
    <style>
      .cls-1 {
        fill: #053097;
      }
    </style>
  </defs>
  <path class="cls-1" d="M244.03,121.9l-10.73-1.82c-.96-2.66-2.03-5.27-3.23-7.8l6.32-8.84c5.5-7.72,4.61-18.15-2.08-24.78l-12.89-12.89c-3.64-3.64-8.47-5.65-13.6-5.65-4.04,0-7.9,1.24-11.14,3.58l-8.87,6.32c-2.74-1.3-5.53-2.44-8.33-3.43l-1.77-10.51c-1.56-9.31-9.55-16.07-18.99-16.07h-18.21c-9.44,0-17.43,6.76-18.99,16.05l-1.86,10.92c-2.63.96-5.23,2.05-7.77,3.27l-8.71-6.27c-3.27-2.35-7.14-3.59-11.21-3.59-5.18,0-10.01,2.01-13.61,5.66l-12.92,12.88c-6.67,6.67-7.55,17.1-2.08,24.78l6.42,9.02c-1.18,2.55-2.25,5.17-3.19,7.84l-10.51,1.77c-9.31,1.56-16.06,9.55-16.06,18.99v18.21c0,9.44,6.76,17.43,16.05,18.99l10.92,1.86c.96,2.64,2.06,5.23,3.27,7.77l-6.25,8.69c-5.5,7.72-4.61,18.15,2.08,24.78l12.89,12.89c3.64,3.64,8.47,5.65,13.6,5.65,4.04,0,7.9-1.24,11.13-3.57l9.02-6.42c2.37,1.1,4.83,2.11,7.35,3.02l1.79,10.73c1.56,9.31,9.55,16.06,18.99,16.06h18.26c9.44,0,17.43-6.76,18.99-16.05l1.82-10.73c2.66-.96,5.27-2.03,7.8-3.23l8.81,6.3c3.27,2.35,7.14,3.6,11.21,3.6,5.12,0,9.96-2.01,13.6-5.65l12.89-12.89c6.68-6.67,7.55-17.1,2.08-24.78l-6.32-8.88c1.23-2.59,2.31-5.2,3.24-7.79l10.71-1.79c9.31-1.56,16.06-9.55,16.06-18.99v-18.18c.11-9.45-6.6-17.45-15.97-19.03ZM247.11,159.11c0,3.12-2.23,5.76-5.3,6.28l-14.21,2.37c-2.62.44-4.74,2.29-5.52,4.83-1.26,4.09-3,8.27-5.15,12.42-1.22,2.34-1.02,5.13.51,7.27l8.37,11.76c1.81,2.54,1.52,5.98-.69,8.19l-12.89,12.89c-1.23,1.23-2.78,1.88-4.48,1.88-1.35,0-2.62-.4-3.69-1.18l-11.71-8.37c-2.15-1.55-4.95-1.74-7.3-.51-3.94,2.06-8.12,3.8-12.44,5.15-2.52.79-4.36,2.9-4.79,5.49l-2.41,14.23c-.52,3.08-3.16,5.31-6.28,5.31h-18.26c-3.12,0-5.76-2.23-6.28-5.3l-2.37-14.21c-.43-2.6-2.27-4.72-4.78-5.51-4.25-1.34-8.3-3.01-12.04-4.95-1.02-.53-2.12-.79-3.22-.79-1.42,0-2.83.44-4.04,1.3l-11.92,8.48c-1.07.77-2.3,1.16-3.63,1.16-1.71,0-3.26-.65-4.48-1.88l-12.92-12.91c-2.2-2.18-2.48-5.62-.69-8.14l8.32-11.58c1.57-2.17,1.76-4.99.5-7.37-2.12-3.97-3.87-8.13-5.22-12.37-.8-2.5-2.9-4.33-5.48-4.77l-14.4-2.46c-3.07-.52-5.31-3.16-5.31-6.28v-18.21c0-3.12,2.23-5.76,5.31-6.28l14.04-2.37c2.62-.44,4.74-2.3,5.52-4.85,1.32-4.33,3.03-8.52,5.06-12.45,1.21-2.33,1.02-5.12-.51-7.26l-8.46-11.89c-1.81-2.54-1.52-5.98.68-8.18l12.94-12.89.05-.05c1.16-1.18,2.74-1.83,4.44-1.83,1.35,0,2.62.4,3.68,1.16l11.63,8.37c2.18,1.57,5,1.76,7.36.49,3.97-2.12,8.13-3.87,12.37-5.21,2.5-.79,4.33-2.89,4.77-5.48l2.46-14.4c.52-3.07,3.16-5.31,6.28-5.31h18.21c3.12,0,5.76,2.23,6.28,5.31l2.37,14.04c.44,2.63,2.3,4.74,4.85,5.52,4.35,1.32,8.69,3.11,12.9,5.31,2.34,1.22,5.13,1.03,7.28-.5l11.79-8.39c1.07-.77,2.29-1.16,3.63-1.16,1.71,0,3.26.65,4.48,1.88l12.91,12.91c2.2,2.18,2.49,5.62.68,8.16l-8.38,11.72c-1.54,2.16-1.73,4.95-.5,7.29,2.06,3.94,3.8,8.12,5.15,12.44.79,2.52,2.9,4.35,5.49,4.79l14.21,2.41h.01c3.07.52,5.26,3.12,5.22,6.19v18.31Z"/>
  <path class="cls-1" d="M150,107.23c-23.59,0-42.77,19.19-42.77,42.77s19.19,42.77,42.77,42.77,42.77-19.19,42.77-42.77-19.19-42.77-42.77-42.77ZM150,179.88c-16.48,0-29.88-13.41-29.88-29.88s13.41-29.88,29.88-29.88,29.88,13.41,29.88,29.88-13.41,29.88-29.88,29.88Z"/>
</svg>